<svg width="11" height="10" viewBox="0 0 11 10" fill="none" xmlns="http://www.w3.org/2000/svg">
<path d="M2.69811 4.22363L1.84906 2.35732L4.73585 1L5.58491 2.35732M2.69811 4.22363H1L2.69811 5.28403M2.69811 4.22363L5.58491 2.35732M2.69811 4.22363L5.58491 5.92027M5.58491 5.92027H3.71698L2.69811 5.28403M5.58491 5.92027H7.62264L8.30189 5.43551M5.58491 5.92027L8.13208 4.22363M5.58491 5.92027V9.31356M8.13208 4.22363H10L8.30189 5.43551M8.13208 4.22363L9.15094 2.86631L6.43396 1L5.58491 2.35732M8.13208 4.22363L5.58491 2.35732M5.58491 9.31356L8.30189 7.61692V5.43551M5.58491 9.31356L2.69811 7.44725V5.28403" stroke="#4B5563" stroke-width="0.5"/>
<path d="M2.71606 7.4449L5.57623 5.95761M5.57623 5.95761L8.322 7.63558M5.57623 5.95761V2.37286" stroke="#4B5563" stroke-width="0.5" stroke-dasharray="1 0.5"/>
</svg>
